# AST/ASF file generated using VICON BodyLanguage
# -----------------------------------------------
:version 1.10
:name VICON
:units
  mass 1.0
  length 0.45
  angle deg
:documentation
   .ast/.asf automatically generated from VICON data using
   VICON BodyBuilder and BodyLanguage model FoxedUp or BRILLIANT.MOD
:root
   order TX TY TZ RX RY RZ
   axis XYZ
   position 0 0 0  
   orientation 0 0 0 
:bonedata
  begin
     id 1 
     name lhipjoint
     direction 0.710188 -0.616876 0.339259 
     length 2.5669 
     axis 0 0 0  XYZ
  end
  begin
     id 2 
     name lfemur
     direction 0.34202 -0.939693 0  
     length 7.12796  
     axis 0 0 20  XYZ
    dof rx ry rz
    limits (-160.0 20.0)
           (-70.0 70.0)
           (-60.0 70.0)
  end
  begin
     id 3 
     name ltibia
     direction 0.34202 -0.939693 0   
     length 7.58108   
     axis 0 0 20   XYZ
    dof rx
    limits (-10.0 170.0)
  end
  begin
     id 4 
     name lfoot
     direction 0.0669471 -0.183936 0.980656   
     length 2.17365   
     axis -90 7.62852e-016 20   XYZ
    dof rx rz
    limits (-45.0 90.0)
           (-70.0 20.0)
  end
  begin
     id 5 
     name ltoes
     direction 1.53508e-011 -4.21705e-011 1   
     length 1.09427   
     axis -90 7.62852e-016 20   XYZ
    dof rx
    limits (-90.0 20.0)
  end
  begin
     id 6 
     name rhipjoint
     direction -0.700191 -0.625589 0.34405   
     length 2.53115  
     axis 0 0 0  XYZ 
  end
  begin
     id 7 
     name rfemur
     direction -0.34202 -0.939693 0   
     length 7.33006   
     axis 0 0 -20   XYZ
    dof rx ry rz
    limits (-160.0 20.0)
           (-70.0 70.0)
           (-70.0 60.0)
  end
  begin
     id 8 
     name rtibia
     direction -0.34202 -0.939693 0   
     length 7.64926   
     axis 0 0 -20   XYZ
    dof rx
    limits (-10.0 170.0)
 end
 begin
     id 9 
     name rfoot
     direction -0.0688927 -0.189281 0.979503   
     length 2.20493  
     axis -90 -7.62852e-016 -20   XYZ
    dof rx rz
    limits (-45.0 90.0)
           (-20.0 70.0)
  end
  begin
     id 10 
     name rtoes
     direction -1.53567e-011 -4.21933e-011 1   
     length 1.10919   
     axis -90 -7.62852e-016 -20   XYZ
    dof rx
    limits (-90.0 20.0)
  end
  begin
     id 11 
     name lowerback
     direction -0.0167868 0.989873 -0.140959   
     length 2.14596   
     axis 0 0 0   XYZ
    dof rx ry rz
    limits (-20.0 45.0)
           (-30.0 30.0)
           (-30.0 30.0)
  end
  begin
     id 12 
     name upperback
     direction 0.0129109 0.998033 0.0613525   
     length 2.10457   
     axis 0 0 0   XYZ
    dof rx ry rz
    limits (-20.0 45.0)
           (-30.0 30.0)
           (-30.0 30.0)
  end
  begin
     id 13 
     name thorax
     direction 0.0177047 0.991119 0.131797   
     length 2.17652   
     axis 0 0 0   XYZ
    dof rx ry rz
    limits (-20.0 45.0)
           (-30.0 30.0)
           (-30.0 30.0)
  end
  begin
     id 14 
     name lowerneck
     direction -0.0336893 0.997548 0.0613464   
     length 1.8912   
     axis 0 0 0   XYZ
    dof rx ry rz
    limits (-20.0 45.0)
           (-30.0 30.0)
           (-30.0 30.0)
  end
  begin
     id 15 
     name upperneck
     direction 0.0435909 0.997179 -0.0611028   
     length 1.8829   
     axis 0 0 0   XYZ
    dof rx ry rz
    limits (-20.0 45.0)
           (-30.0 30.0)
           (-30.0 30.0)
  end
  begin
     id 16
     name head
     direction 0.0175076 0.999444 -0.0283782  
     length 1.93197  
     axis 0 0 0   XYZ
    dof rx ry rz
    limits (-20.0 45.0)
           (-30.0 30.0)
           (-30.0 30.0)
  end
  begin
     id 17 
     name lclavicle
     direction 0.919164 0.389875 0.0559876  
     length 3.60004  
     axis 0 0 0   XYZ
    dof ry rz
    limits (-20.0 10.0)
           (0.0 20.0)
  end
  begin
     id 18 
     name lhumerus
     direction 1 -4.48958e-011 6.89191e-027   
     length 5.43301   
     axis 180 -30 -90   XYZ
    dof rx ry rz
    limits (-60.0 90.0)
           (-90.0 90.0)
           (-90.0 90.0)
  end
  begin
     id 19
     name lradius
     direction 1 -4.4897e-011 3.24727e-027   
     length 3.15936   
     axis 180 -30 -90   XYZ
    dof rx
    limits (-10.0 170.0)
  end
  begin
     id 20
     name lwrist
     direction 1 -4.4897e-011 9.00228e-027   
     length 1.57968   
     axis -6.29373e-015 90 90   XYZ
    dof ry
    limits (-180.0 0.0)
 end
  begin
     id 21 
     name lhand
     direction 1 -4.48968e-011 1.80042e-026   
     length 0.712827   
     axis -1.14882e-014 90 90   XYZ
    dof rx rz
    limits (-90.0 90.0)
           (-45.0 45.0)
  end
  begin
     id 22 
     name lfingers
     direction 1 -4.49019e-011 3.60267e-026   
     length 0.574699   
     axis -2.29769e-014 90 90   XYZ
    dof rx
    limits (0.0 90.0)
  end
  begin
     id 23
     name lthumb
     direction 0.707107 -6.3498e-011 0.707107   
     length 0.825157   
     axis -90 45 5.37419e-014   XYZ
    dof rx rz
    limits (-45.0 45.0)
           (-45.0 45.0)
  end
  begin
     id 24 
     name rclavicle
     direction -0.890334 0.455305 -0.00132111   
     length 3.51494  
     axis 0 0 0   XYZ 
    dof ry rz
    limits (-10.0 20.0)
           (-20.0 0.0)
  end
  begin
     id 25 
     name rhumerus
     direction -1 -4.48967e-011 5.07175e-028  
     length 5.34194   
     axis 180 30 90   XYZ
    dof rx ry rz
    limits (-90.0 60.0)
           (-90.0 90.0)
           (-90.0 90.0)
  end
  begin
     id 26 
     name rradius
     direction -1 -4.48955e-011 3.30467e-027   
     length 3.19351   
     axis 180 30 90   XYZ
    dof rx
    limits (-10.0 170.0)
  end
  begin
     id 27 
     name rwrist
     direction -1 -4.48968e-011 9.00208e-027   
     length 1.59676   
     axis -6.29373e-015 -90 -90   XYZ
    dof ry
    limits (-180.0 0.0)
  end
  begin
     id 28
     name rhand
     direction -1 -4.49e-011 1.80099e-026   
     length 0.743862   
     axis -1.14882e-014 -90 -90   XYZ
    dof rx rz
    limits (-90.0 90.0)
           (-45.0 45.0)
  end
  begin
     id 29
     name rfingers
     direction -1 -4.49009e-011 3.6023e-026   
     length 0.599721   
     axis -2.29769e-014 -90 -90   XYZ
    dof rx
    limits (0.0 90.0)
  end
  begin
     id 30
     name rthumb
     direction -0.707107 -6.35025e-011 0.707107   
     length 0.861083   
     axis -90 -45 -5.37419e-014   XYZ
    dof rx rz
    limits (-45.0 45.0)
           (-45.0 45.0)
  end
:hierarchy
  begin
    root lhipjoint rhipjoint lowerback
    lhipjoint lfemur
    lfemur ltibia
    ltibia lfoot
    lfoot ltoes
    rhipjoint rfemur
    rfemur rtibia
    rtibia rfoot
    rfoot rtoes
    lowerback upperback
    upperback thorax
    thorax lowerneck lclavicle rclavicle
    lowerneck upperneck
    upperneck head
    lclavicle lhumerus
    lhumerus lradius
    lradius lwrist
    lwrist lhand lthumb
    lhand lfingers
    rclavicle rhumerus
    rhumerus rradius
    rradius rwrist
    rwrist rhand rthumb
    rhand rfingers
  end

#!OML:ASF H:\Martial Arts Walks\Project 1\Capture day 1\Session 1\male.ASF
:FULLY-SPECIFIED
:DEGREES
1000
root -0.169256 14.0956 26.0828 5.45624 -26.1619 -7.13113
lowerback 15.3232 2.86478 0.310701
upperback 0.754231 3.99346 2.00871
thorax -7.9152 1.94992 1.09647
lowerneck -2.3435 3.80023 -1.43563
upperneck 2.64312 5.05478 2.18605
head 1.10994 2.54322 0.993594
rclavicle -8.34896e-015 2.68359e-014
rhumerus -46.5244 22.6527 -81.3806
rradius 80.2218
rwrist -48.9848
rhand -5.1912 -31.396
rfingers 7.12502
rthumb 20.6097 -60.3219
lclavicle -8.34896e-015 2.68359e-014
lhumerus -11.4365 -9.13933 71.0306
lradius 55.7264
lwrist -1.10572
lhand -7.54632 41.9355
lfingers 7.12502
lthumb 18.3453 71.0905
rfemur -17.9536 15.1804 15.4851
rtibia 73.764
rfoot -26.1715 -17.4415
rtoes -36.788
lfemur -47.4902 3.30765 6.37445
ltibia 32.8551
lfoot 18.9779 8.02943
ltoes -8.22922
1001
root -0.231099 14.1429 25.8761 5.25999 -25.4073 -7.11734
lowerback 15.4262 2.95639 0.584014
upperback 0.824282 4.15911 1.9846
thorax -7.87934 2.01907 0.877547
lowerneck -2.34854 3.42655 -1.76119
upperneck 2.60936 4.56031 2.46688
head 1.09752 2.29739 1.12878
rclavicle -6.95746e-015 1.98785e-016
rhumerus -44.6357 22.0472 -80.5174
rradius 78.4191
rwrist -49.3198
rhand -6.05272 -33.379
rfingers 7.12502
rthumb 19.7817 -62.3924
lclavicle -6.95746e-015 1.98785e-016
lhumerus -12.5871 -9.52121 72.1119
lradius 57.4675
lwrist 0.467129
lhand -6.07243 41.7155
lfingers 7.12502
lthumb 19.7627 70.7308
rfemur -17.9073 14.0778 16.4928
rtibia 73.4457
rfoot -25.6418 -19.2977
rtoes -36.8794
lfemur -46.5261 1.54221 7.18984
ltibia 29.9718
lfoot 16.8068 7.08632
ltoes -9.0973
1002
root -0.29367 14.1886 25.6632 5.09168 -24.5653 -7.06188
lowerback 15.5441 3.0586 0.78976
upperback 0.87715 4.32883 1.96591
thorax -7.87411 2.09278 0.700197
lowerneck -2.32576 3.0155 -2.08898
upperneck 2.50159 4.01704 2.74336
head 1.06169 2.02689 1.2618
rclavicle 4.96216e-014 4.17448e-015
rhumerus -42.7263 21.2987 -79.6161
rradius 76.6703
rwrist -49.6873
rhand -7.10738 -35.5447
rfingers 7.12502
rthumb 18.7675 -64.6594
lclavicle 4.96216e-014 4.17448e-015
lhumerus -13.631 -9.99778 73.2749
lradius 59.1045
lwrist 2.04663
lhand -4.63185 41.2499
lfingers 7.12502
lthumb 21.1471 70.1166
rfemur -17.935 12.8853 17.444
rtibia 73.1017
rfoot -25.188 -21.1305
rtoes -36.8361
lfemur -45.8451 -0.0585164 7.76531
ltibia 27.4413
lfoot 14.0546 6.65672
ltoes -8.90439
1003
root -0.35735 14.231 25.4438 4.96275 -23.6416 -6.957
lowerback 15.6655 3.16941 0.907177
upperback 0.910566 4.4962 1.9525
thorax -7.89771 2.16853 0.577523
lowerneck -2.29936 2.57386 -2.417
upperneck 2.35073 3.43408 3.00898
head 1.01663 1.73632 1.39181
rclavicle -2.03754e-014 3.47873e-015
rhumerus -40.7968 20.4363 -78.6951
rradius 74.9917
rwrist -50.0383
rhand -8.21786 -37.6051
rfingers 7.12502
rthumb 17.6992 -66.8196
lclavicle -2.03754e-014 3.47873e-015
lhumerus -14.5677 -10.5778 74.5079
lradius 60.6421
lwrist 3.57728
lhand -3.19351 40.5969
lfingers 7.12502
lthumb 22.5282 69.3027
rfemur -18.0823 11.6722 18.3224
rtibia 72.7709
rfoot -24.8695 -22.8539
rtoes -36.593
lfemur -45.5002 -1.31952 7.96956
ltibia 25.4204
lfoot 11.1491 6.84425
ltoes -8.04384
1004
root -0.422397 14.2684 25.218 4.87658 -22.6398 -6.8071
lowerback 15.7888 3.28416 0.938894
upperback 0.929922 4.65492 1.94358
thorax -7.94397 2.24309 0.508606
lowerneck -2.30153 2.11834 -2.75331
upperneck 2.17797 2.83413 3.27399
head 0.973817 1.43738 1.52474
rclavicle 6.4605e-015 5.20816e-014
rhumerus -38.8449 19.495 -77.7764
rradius 73.4143
rwrist -50.3417
rhand -9.50783 -39.655
rfingers 7.12502
rthumb 16.4575 -68.9769
lclavicle 6.4605e-015 5.20816e-014
lhumerus -15.3735 -11.2643 75.7898
lradius 62.0652
lwrist 4.97764
lhand -1.8396 39.6915
lfingers 7.12502
lthumb 23.8272 68.2338
rfemur -18.3712 10.5037 19.1288
rtibia 72.4864
rfoot -24.6935 -24.4331
rtoes -36.172
lfemur -45.5348 -1.99945 7.61412
ltibia 24.0842
lfoot 8.39684 7.52775
ltoes -7.20079
1005
root -0.48884 14.3 24.9858 4.83862 -21.5432 -6.62034
lowerback 15.9107 3.38918 0.90724
upperback 0.940109 4.79015 1.9372
thorax -8.00424 2.30851 0.482429
lowerneck -2.34111 1.65818 -3.10398
upperneck 1.98581 2.23013 3.54041
head 0.935249 1.13665 1.66246
rclavicle 2.2413e-014 5.96354e-016
rhumerus -36.8638 18.5123 -76.8847
rradius 71.9572
rwrist -50.525
rhand -11.2878 -42.2523
rfingers 7.12502
rthumb 14.7432 -71.708
lclavicle 2.2413e-014 5.96354e-016
lhumerus -16.0301 -12.0521 77.0996
lradius 63.3659
lwrist 6.14645
lhand -0.435122 38.5674
lfingers 7.12502
lthumb 25.1735 66.9273
rfemur -18.8134 9.39941 19.8693
rtibia 72.2733
rfoot -24.662 -25.8469
rtoes -35.5683
lfemur -46.0128 -1.87525 6.49658
ltibia 23.6
lfoot 5.9795 8.50979
ltoes -6.7435
1006
root -0.556319 14.3254 24.7473 4.84255 -20.3359 -6.40929
lowerback 16.0385 3.46491 0.843115
upperback 0.951419 4.88082 1.9312
thorax -8.069 2.35353 0.484144
lowerneck -2.37941 1.1816 -3.41362
upperneck 1.72204 1.60635 3.74391
head 0.879124 0.825617 1.7728
rclavicle 4.21672e-014 1.03865e-014
rhumerus -34.8442 17.5519 -76.0478
rradius 70.6605
rwrist -50.5745
rhand -13.1088 -44.969
rfingers 7.12502
rthumb 12.9883 -74.5447
lclavicle 4.21672e-014 1.03865e-014
lhumerus -16.5201 -12.9202 78.4086
lradius 64.542
lwrist 7.00718
lhand 1.07652 37.2366
lfingers 7.12502
lthumb 26.6211 65.3851
rfemur -19.3992 8.35451 20.5553
rtibia 72.143
rfoot -24.7651 -27.0914
rtoes -34.8025
lfemur -46.9696 -0.85375 4.49252
ltibia 24.0846
lfoot 4.00915 9.67247
ltoes -6.58027
1007
root -0.624165 14.3453 24.5024 4.87138 -19.0017 -6.1687
lowerback 16.189 3.49454 0.76577
upperback 0.976746 4.90722 1.91911
thorax -8.13112 2.36782 0.500277
lowerneck -2.45686 0.709308 -3.69454
upperneck 1.40708 0.991133 3.9031
head 0.816755 0.519045 1.86467
rclavicle 4.12354e-014 -1.95803e-014
rhumerus -32.7683 16.6614 -75.2828
rradius 69.585
rwrist -50.5066
rhand -14.8521 -47.8312
rfingers 7.12502
rthumb 11.3073 -77.5064
lclavicle 4.12354e-014 -1.95803e-014
lhumerus -16.8165 -13.8604 79.6929
lradius 65.5954
lwrist 7.51935
lhand 2.75662 35.7782
lfingers 7.12502
lthumb 28.228 63.6721
rfemur -20.1108 7.3377 21.1764
rtibia 72.0986
rfoot -25.0126 -28.1425
rtoes -33.8303
lfemur -48.4127 0.949459 1.60644
ltibia 25.5563
lfoot 2.51503 10.9726
ltoes -6.56061
